<svg id="Main Gallery_1" width="1200" height="800" viewBox="0 0 1200 800" xmlns="http://www.w3.org/2000/svg">
  <!-- Designer: Curator, Date: 2026-03-18 -->
  <rect width="100%" height="100%" fill="#fafafa" />
  <line id="PartitionA_2" x1="400" y1="200" x2="400" y2="600" stroke="#e74c3c" stroke-width="12" stroke-linecap="round" />
  <line id="PartitionB_3" x1="800" y1="200" x2="800" y2="600" stroke="#e74c3c" stroke-width="12" stroke-linecap="round" />
  <circle id="Pedestal_4" cx="200" cy="150" r="12" fill="#ecf0f1" />
  <text x="200" y="175" font-family="Arial" font-size="10" text-anchor="middle" fill="#333">Pedestal</text>
  <circle id="Art_5" cx="200" cy="150" r="12" fill="#95a5a6" />
  <text x="200" y="175" font-family="Arial" font-size="10" text-anchor="middle" fill="#333">Art</text>
  <circle id="Pedestal_6" cx="400" cy="150" r="12" fill="#ecf0f1" />
  <text x="400" y="175" font-family="Arial" font-size="10" text-anchor="middle" fill="#333">Pedestal</text>
  <circle id="Art_7" cx="400" cy="150" r="12" fill="#95a5a6" />
  <text x="400" y="175" font-family="Arial" font-size="10" text-anchor="middle" fill="#333">Art</text>
  <circle id="Pedestal_8" cx="600" cy="150" r="12" fill="#ecf0f1" />
  <text x="600" y="175" font-family="Arial" font-size="10" text-anchor="middle" fill="#333">Pedestal</text>
  <circle id="Art_9" cx="600" cy="150" r="12" fill="#95a5a6" />
  <text x="600" y="175" font-family="Arial" font-size="10" text-anchor="middle" fill="#333">Art</text>
  <circle id="Pedestal_10" cx="800" cy="150" r="12" fill="#ecf0f1" />
  <text x="800" y="175" font-family="Arial" font-size="10" text-anchor="middle" fill="#333">Pedestal</text>
  <circle id="Art_11" cx="800" cy="150" r="12" fill="#95a5a6" />
  <text x="800" y="175" font-family="Arial" font-size="10" text-anchor="middle" fill="#333">Art</text>
  <circle id="Pedestal_12" cx="1000" cy="150" r="12" fill="#ecf0f1" />
  <text x="1000" y="175" font-family="Arial" font-size="10" text-anchor="middle" fill="#333">Pedestal</text>
  <circle id="Art_13" cx="1000" cy="150" r="12" fill="#95a5a6" />
  <text x="1000" y="175" font-family="Arial" font-size="10" text-anchor="middle" fill="#333">Art</text>
  <circle id="Fountain_14" cx="600" cy="400" r="12" fill="#3498db" />
  <text x="600" y="425" font-family="Arial" font-size="10" text-anchor="middle" fill="#333">Fountain</text>
</svg>
