<svg id="Main Gallery_1" width="1200" height="840" viewBox="0 0 1200 840" xmlns="http://www.w3.org/2000/svg">
  <defs>
    <pattern id="grid" width="50" height="50" patternUnits="userSpaceOnUse">
      <path d="M 50 0 L 0 0 0 50" fill="none" stroke="#f0f0f0" stroke-width="1"/>
      <circle cx="0" cy="0" r="1.5" fill="#e0e0e0" />
    </pattern>
    <filter id="shadow" x="-20%" y="-20%" width="140%" height="140%">
      <feGaussianBlur in="SourceAlpha" stdDeviation="3" />
      <feOffset dx="2" dy="2" result="offsetblur" />
      <feComponentTransfer><feFuncA type="linear" slope="0.2"/></feComponentTransfer>
      <feMerge><feMergeNode /><feMergeNode in="SourceGraphic" /></feMerge>
    </filter>
  </defs>
  <rect width="100%" height="100%" fill="white" />
  <rect width="100%" height="800" fill="url(#grid)" />
  <rect x="0" y="800" width="100%" height="40" fill="#f9f9f9" />
  <line x1="0" y1="800" x2="1200" y2="800" stroke="#eee" stroke-width="1" />
  <text x="15" y="825" font-family="Arial, sans-serif" font-size="10" font-weight="bold" fill="#888">
    DESIGNER: Curator | DATE: 2026-03-18 | Main Gallery_1
  </text>
  <line x1="400" y1="250" x2="400" y2="600" stroke="#e74c3c" stroke-width="12" stroke-linecap="round" />
  <line x1="400" y1="250" x2="400" y2="600" stroke="white" stroke-width="4.800000000000001" stroke-linecap="round" opacity="0.3" />
  <line x1="800" y1="250" x2="800" y2="600" stroke="#e74c3c" stroke-width="12" stroke-linecap="round" />
  <line x1="800" y1="250" x2="800" y2="600" stroke="white" stroke-width="4.800000000000001" stroke-linecap="round" opacity="0.3" />
  <g class="furniture" filter="url(#shadow)">
    <rect x="170" y="120" width="60" height="60" fill="#ecf0f1" rx="6" />
  </g>
  <g class="furniture" filter="url(#shadow)">
    <rect x="180" y="130" width="40" height="40" fill="#95a5a6" rx="6" />
  </g>
  <g class="furniture" filter="url(#shadow)">
    <rect x="370" y="120" width="60" height="60" fill="#ecf0f1" rx="6" />
  </g>
  <g class="furniture" filter="url(#shadow)">
    <rect x="380" y="130" width="40" height="40" fill="#95a5a6" rx="6" />
  </g>
  <g class="furniture" filter="url(#shadow)">
    <rect x="570" y="120" width="60" height="60" fill="#ecf0f1" rx="6" />
  </g>
  <g class="furniture" filter="url(#shadow)">
    <rect x="580" y="130" width="40" height="40" fill="#95a5a6" rx="6" />
  </g>
  <g class="furniture" filter="url(#shadow)">
    <rect x="770" y="120" width="60" height="60" fill="#ecf0f1" rx="6" />
  </g>
  <g class="furniture" filter="url(#shadow)">
    <rect x="780" y="130" width="40" height="40" fill="#95a5a6" rx="6" />
  </g>
  <g class="furniture" filter="url(#shadow)">
    <rect x="970" y="120" width="60" height="60" fill="#ecf0f1" rx="6" />
  </g>
  <g class="furniture" filter="url(#shadow)">
    <rect x="980" y="130" width="40" height="40" fill="#95a5a6" rx="6" />
  </g>
  <g class="furniture" filter="url(#shadow)">
    <rect x="560" y="360" width="80" height="80" fill="#3498db" rx="6" />
  </g>
  <g transform="translate(200, 192)">
    <rect x="-30" y="-8" width="60" height="12" fill="white" fill-opacity="0.9" rx="4" />
    <text font-family="Arial, sans-serif" font-size="9" font-weight="bold" text-anchor="middle" fill="#333">Pedestal</text>
  </g>
  <g transform="translate(200, 212)">
    <rect x="-30" y="-8" width="60" height="12" fill="white" fill-opacity="0.9" rx="4" />
    <text font-family="Arial, sans-serif" font-size="9" font-weight="bold" text-anchor="middle" fill="#333">Exhibit 1</text>
  </g>
  <g transform="translate(400, 192)">
    <rect x="-30" y="-8" width="60" height="12" fill="white" fill-opacity="0.9" rx="4" />
    <text font-family="Arial, sans-serif" font-size="9" font-weight="bold" text-anchor="middle" fill="#333">Pedestal</text>
  </g>
  <g transform="translate(400, 212)">
    <rect x="-30" y="-8" width="60" height="12" fill="white" fill-opacity="0.9" rx="4" />
    <text font-family="Arial, sans-serif" font-size="9" font-weight="bold" text-anchor="middle" fill="#333">Exhibit 2</text>
  </g>
  <g transform="translate(600, 192)">
    <rect x="-30" y="-8" width="60" height="12" fill="white" fill-opacity="0.9" rx="4" />
    <text font-family="Arial, sans-serif" font-size="9" font-weight="bold" text-anchor="middle" fill="#333">Pedestal</text>
  </g>
  <g transform="translate(600, 212)">
    <rect x="-30" y="-8" width="60" height="12" fill="white" fill-opacity="0.9" rx="4" />
    <text font-family="Arial, sans-serif" font-size="9" font-weight="bold" text-anchor="middle" fill="#333">Exhibit 3</text>
  </g>
  <g transform="translate(800, 192)">
    <rect x="-30" y="-8" width="60" height="12" fill="white" fill-opacity="0.9" rx="4" />
    <text font-family="Arial, sans-serif" font-size="9" font-weight="bold" text-anchor="middle" fill="#333">Pedestal</text>
  </g>
  <g transform="translate(800, 212)">
    <rect x="-30" y="-8" width="60" height="12" fill="white" fill-opacity="0.9" rx="4" />
    <text font-family="Arial, sans-serif" font-size="9" font-weight="bold" text-anchor="middle" fill="#333">Exhibit 4</text>
  </g>
  <g transform="translate(1000, 192)">
    <rect x="-30" y="-8" width="60" height="12" fill="white" fill-opacity="0.9" rx="4" />
    <text font-family="Arial, sans-serif" font-size="9" font-weight="bold" text-anchor="middle" fill="#333">Pedestal</text>
  </g>
  <g transform="translate(1000, 212)">
    <rect x="-30" y="-8" width="60" height="12" fill="white" fill-opacity="0.9" rx="4" />
    <text font-family="Arial, sans-serif" font-size="9" font-weight="bold" text-anchor="middle" fill="#333">Exhibit 5</text>
  </g>
  <g transform="translate(600, 452)">
    <rect x="-30" y="-8" width="60" height="12" fill="white" fill-opacity="0.9" rx="4" />
    <text font-family="Arial, sans-serif" font-size="9" font-weight="bold" text-anchor="middle" fill="#333">Fountain</text>
  </g>
</svg>
