<svg id="Pattern_1" width="600" height="600" viewBox="0 0 600 600" xmlns="http://www.w3.org/2000/svg">
  <!-- Designer: Artist, Date: 2026-03-18 -->
  <rect width="100%" height="100%" fill="#fafafa" />
  <circle id="Dot_2" cx="80" cy="80" r="12" fill="#ff0000" />
  <text x="80" y="105" font-family="Arial" font-size="10" text-anchor="middle" fill="#333">Dot</text>
  <circle id="Dot_3" cx="160" cy="80" r="12" fill="#ff0000" />
  <text x="160" y="105" font-family="Arial" font-size="10" text-anchor="middle" fill="#333">Dot</text>
  <circle id="Dot_4" cx="240" cy="80" r="12" fill="#ff0000" />
  <text x="240" y="105" font-family="Arial" font-size="10" text-anchor="middle" fill="#333">Dot</text>
  <circle id="Dot_5" cx="320" cy="80" r="12" fill="#ff0000" />
  <text x="320" y="105" font-family="Arial" font-size="10" text-anchor="middle" fill="#333">Dot</text>
  <circle id="Dot_6" cx="400" cy="80" r="12" fill="#ff0000" />
  <text x="400" y="105" font-family="Arial" font-size="10" text-anchor="middle" fill="#333">Dot</text>
  <circle id="Node_7" cx="100" cy="150" r="12" fill="#000000" />
  <text x="100" y="175" font-family="Arial" font-size="10" text-anchor="middle" fill="#333">Node</text>
  <circle id="Node_8" cx="100" cy="250" r="12" fill="#aaaaaa" />
  <text x="100" y="275" font-family="Arial" font-size="10" text-anchor="middle" fill="#333">Node</text>
  <circle id="Node_9" cx="100" cy="350" r="12" fill="#000000" />
  <text x="100" y="375" font-family="Arial" font-size="10" text-anchor="middle" fill="#333">Node</text>
  <circle id="Node_10" cx="100" cy="450" r="12" fill="#aaaaaa" />
  <text x="100" y="475" font-family="Arial" font-size="10" text-anchor="middle" fill="#333">Node</text>
  <circle id="Node_11" cx="100" cy="550" r="12" fill="#000000" />
  <text x="100" y="575" font-family="Arial" font-size="10" text-anchor="middle" fill="#333">Node</text>
  <circle id="Node_12" cx="200" cy="150" r="12" fill="#aaaaaa" />
  <text x="200" y="175" font-family="Arial" font-size="10" text-anchor="middle" fill="#333">Node</text>
  <circle id="Node_13" cx="200" cy="250" r="12" fill="#000000" />
  <text x="200" y="275" font-family="Arial" font-size="10" text-anchor="middle" fill="#333">Node</text>
  <circle id="Node_14" cx="200" cy="350" r="12" fill="#aaaaaa" />
  <text x="200" y="375" font-family="Arial" font-size="10" text-anchor="middle" fill="#333">Node</text>
  <circle id="Node_15" cx="200" cy="450" r="12" fill="#000000" />
  <text x="200" y="475" font-family="Arial" font-size="10" text-anchor="middle" fill="#333">Node</text>
  <circle id="Node_16" cx="200" cy="550" r="12" fill="#aaaaaa" />
  <text x="200" y="575" font-family="Arial" font-size="10" text-anchor="middle" fill="#333">Node</text>
  <circle id="Node_17" cx="300" cy="150" r="12" fill="#000000" />
  <text x="300" y="175" font-family="Arial" font-size="10" text-anchor="middle" fill="#333">Node</text>
  <circle id="Node_18" cx="300" cy="250" r="12" fill="#aaaaaa" />
  <text x="300" y="275" font-family="Arial" font-size="10" text-anchor="middle" fill="#333">Node</text>
  <circle id="Node_19" cx="300" cy="350" r="12" fill="#000000" />
  <text x="300" y="375" font-family="Arial" font-size="10" text-anchor="middle" fill="#333">Node</text>
  <circle id="Node_20" cx="300" cy="450" r="12" fill="#aaaaaa" />
  <text x="300" y="475" font-family="Arial" font-size="10" text-anchor="middle" fill="#333">Node</text>
  <circle id="Node_21" cx="300" cy="550" r="12" fill="#000000" />
  <text x="300" y="575" font-family="Arial" font-size="10" text-anchor="middle" fill="#333">Node</text>
  <circle id="Node_22" cx="400" cy="150" r="12" fill="#aaaaaa" />
  <text x="400" y="175" font-family="Arial" font-size="10" text-anchor="middle" fill="#333">Node</text>
  <circle id="Node_23" cx="400" cy="250" r="12" fill="#000000" />
  <text x="400" y="275" font-family="Arial" font-size="10" text-anchor="middle" fill="#333">Node</text>
  <circle id="Node_24" cx="400" cy="350" r="12" fill="#aaaaaa" />
  <text x="400" y="375" font-family="Arial" font-size="10" text-anchor="middle" fill="#333">Node</text>
  <circle id="Node_25" cx="400" cy="450" r="12" fill="#000000" />
  <text x="400" y="475" font-family="Arial" font-size="10" text-anchor="middle" fill="#333">Node</text>
  <circle id="Node_26" cx="400" cy="550" r="12" fill="#aaaaaa" />
  <text x="400" y="575" font-family="Arial" font-size="10" text-anchor="middle" fill="#333">Node</text>
  <circle id="Node_27" cx="500" cy="150" r="12" fill="#000000" />
  <text x="500" y="175" font-family="Arial" font-size="10" text-anchor="middle" fill="#333">Node</text>
  <circle id="Node_28" cx="500" cy="250" r="12" fill="#aaaaaa" />
  <text x="500" y="275" font-family="Arial" font-size="10" text-anchor="middle" fill="#333">Node</text>
  <circle id="Node_29" cx="500" cy="350" r="12" fill="#000000" />
  <text x="500" y="375" font-family="Arial" font-size="10" text-anchor="middle" fill="#333">Node</text>
  <circle id="Node_30" cx="500" cy="450" r="12" fill="#aaaaaa" />
  <text x="500" y="475" font-family="Arial" font-size="10" text-anchor="middle" fill="#333">Node</text>
  <circle id="Node_31" cx="500" cy="550" r="12" fill="#000000" />
  <text x="500" y="575" font-family="Arial" font-size="10" text-anchor="middle" fill="#333">Node</text>
</svg>
