<svg id="Professional Kitchen_1" width="800" height="800" viewBox="0 0 800 800" xmlns="http://www.w3.org/2000/svg">
  
  <text x="10" y="20" font-family="Arial" font-size="12" fill="#999">Designer: Chef de Cuisine | Date: 2026-03-18</text>
  <rect width="100%" height="100%" fill="#fcfcfc" />
  <line x1="50" y1="50" x2="750" y2="50" stroke="#e74c3c" stroke-width="15" stroke-linecap="round" />
  <line x1="50" y1="50" x2="50" y2="750" stroke="#e74c3c" stroke-width="10" stroke-linecap="round" />
  <rect x="135" y="85" width="30" height="30" fill="#7e5233" rx="4" />
  <text x="150" y="105" font-family="Arial" font-size="8" text-anchor="middle" fill="white">Unit</text>
  <rect x="285" y="85" width="30" height="30" fill="#7e5233" rx="4" />
  <text x="300" y="105" font-family="Arial" font-size="8" text-anchor="middle" fill="white">Unit</text>
  <rect x="435" y="85" width="30" height="30" fill="#7e5233" rx="4" />
  <text x="450" y="105" font-family="Arial" font-size="8" text-anchor="middle" fill="white">Unit</text>
  <rect x="585" y="85" width="30" height="30" fill="#7e5233" rx="4" />
  <text x="600" y="105" font-family="Arial" font-size="8" text-anchor="middle" fill="white">Unit</text>
  <rect x="735" y="85" width="30" height="30" fill="#7e5233" rx="4" />
  <text x="750" y="105" font-family="Arial" font-size="8" text-anchor="middle" fill="white">Unit</text>
  <line x1="300" y1="400" x2="500" y2="400" stroke="#34495e" stroke-width="40" stroke-linecap="round" />
  <rect x="385" y="385" width="30" height="30" fill="#3498db" rx="4" />
  <text x="400" y="405" font-family="Arial" font-size="8" text-anchor="middle" fill="white">Sink</text>
  <rect x="135" y="85" width="30" height="30" fill="#c0392b" rx="4" />
  <text x="150" y="105" font-family="Arial" font-size="8" text-anchor="middle" fill="white">Range</text>
  <rect x="85" y="585" width="30" height="30" fill="#ecf0f1" rx="4" />
  <text x="100" y="605" font-family="Arial" font-size="8" text-anchor="middle" fill="white">Fridge</text>
</svg>
