<svg id="Great Library_1" width="1200" height="1000" viewBox="0 0 1200 1000" xmlns="http://www.w3.org/2000/svg">
  <!-- Designer: The Architect, Date: 2026-03-18 -->
  <rect width="100%" height="100%" fill="#fafafa" />
  <line id="West_2" x1="50" y1="50" x2="50" y2="950" stroke="black" stroke-width="20" stroke-linecap="round" />
  <line id="North_3" x1="50" y1="50" x2="1150" y2="50" stroke="black" stroke-width="20" stroke-linecap="round" />
  <line id="East_4" x1="1150" y1="50" x2="1150" y2="950" stroke="black" stroke-width="20" stroke-linecap="round" />
  <line id="Stack_5" x1="150" y1="200" x2="700" y2="200" stroke="#7e5233" stroke-width="30" stroke-linecap="round" />
  <line id="Stack_6" x1="150" y1="450" x2="700" y2="450" stroke="#7e5233" stroke-width="30" stroke-linecap="round" />
  <line id="Stack_7" x1="150" y1="700" x2="700" y2="700" stroke="#7e5233" stroke-width="30" stroke-linecap="round" />
  <circle id="Table_8" cx="900" cy="200" r="12" fill="#27ae60" />
  <text x="900" y="225" font-family="Arial" font-size="10" text-anchor="middle" fill="#333">Table</text>
  <circle id="Chair_9" cx="900" cy="240" r="12" fill="#333333" />
  <text x="900" y="265" font-family="Arial" font-size="10" text-anchor="middle" fill="#333">Chair</text>
  <circle id="Table_10" cx="900" cy="450" r="12" fill="#27ae60" />
  <text x="900" y="475" font-family="Arial" font-size="10" text-anchor="middle" fill="#333">Table</text>
  <circle id="Chair_11" cx="900" cy="490" r="12" fill="#333333" />
  <text x="900" y="515" font-family="Arial" font-size="10" text-anchor="middle" fill="#333">Chair</text>
  <circle id="Table_12" cx="900" cy="700" r="12" fill="#27ae60" />
  <text x="900" y="725" font-family="Arial" font-size="10" text-anchor="middle" fill="#333">Table</text>
  <circle id="Chair_13" cx="900" cy="740" r="12" fill="#333333" />
  <text x="900" y="765" font-family="Arial" font-size="10" text-anchor="middle" fill="#333">Chair</text>
  <circle id="Table_14" cx="1050" cy="200" r="12" fill="#27ae60" />
  <text x="1050" y="225" font-family="Arial" font-size="10" text-anchor="middle" fill="#333">Table</text>
  <circle id="Chair_15" cx="1050" cy="240" r="12" fill="#333333" />
  <text x="1050" y="265" font-family="Arial" font-size="10" text-anchor="middle" fill="#333">Chair</text>
  <circle id="Table_16" cx="1050" cy="450" r="12" fill="#27ae60" />
  <text x="1050" y="475" font-family="Arial" font-size="10" text-anchor="middle" fill="#333">Table</text>
  <circle id="Chair_17" cx="1050" cy="490" r="12" fill="#333333" />
  <text x="1050" y="515" font-family="Arial" font-size="10" text-anchor="middle" fill="#333">Chair</text>
  <circle id="Table_18" cx="1050" cy="700" r="12" fill="#27ae60" />
  <text x="1050" y="725" font-family="Arial" font-size="10" text-anchor="middle" fill="#333">Table</text>
  <circle id="Chair_19" cx="1050" cy="740" r="12" fill="#333333" />
  <text x="1050" y="765" font-family="Arial" font-size="10" text-anchor="middle" fill="#333">Chair</text>
  <circle id="CircularDesk_20" cx="400" cy="800" r="12" fill="#e67e22" />
  <text x="400" y="825" font-family="Arial" font-size="10" text-anchor="middle" fill="#333">CircularDesk</text>
</svg>
