<svg id="Pattern_1" width="600" height="640" viewBox="0 0 600 640" xmlns="http://www.w3.org/2000/svg">
  <defs>
    <pattern id="grid" width="50" height="50" patternUnits="userSpaceOnUse">
      <path d="M 50 0 L 0 0 0 50" fill="none" stroke="#f0f0f0" stroke-width="1"/>
      <circle cx="0" cy="0" r="1.5" fill="#e0e0e0" />
    </pattern>
    <filter id="shadow" x="-20%" y="-20%" width="140%" height="140%">
      <feGaussianBlur in="SourceAlpha" stdDeviation="3" />
      <feOffset dx="2" dy="2" result="offsetblur" />
      <feComponentTransfer><feFuncA type="linear" slope="0.2"/></feComponentTransfer>
      <feMerge><feMergeNode /><feMergeNode in="SourceGraphic" /></feMerge>
    </filter>
  </defs>
  <rect width="100%" height="100%" fill="white" />
  <rect width="100%" height="600" fill="url(#grid)" />
  <rect x="0" y="600" width="100%" height="40" fill="#f9f9f9" />
  <line x1="0" y1="600" x2="600" y2="600" stroke="#eee" stroke-width="1" />
  <text x="15" y="625" font-family="Arial, sans-serif" font-size="10" font-weight="bold" fill="#888">
    DESIGNER: Artist | DATE: 2026-03-18 | Pattern_1
  </text>
  <g class="furniture" filter="url(#shadow)">
    <rect x="60" y="60" width="40" height="40" fill="#ff0000" rx="6" />
  </g>
  <g class="furniture" filter="url(#shadow)">
    <rect x="140" y="60" width="40" height="40" fill="#ff0000" rx="6" />
  </g>
  <g class="furniture" filter="url(#shadow)">
    <rect x="220" y="60" width="40" height="40" fill="#ff0000" rx="6" />
  </g>
  <g class="furniture" filter="url(#shadow)">
    <rect x="300" y="60" width="40" height="40" fill="#ff0000" rx="6" />
  </g>
  <g class="furniture" filter="url(#shadow)">
    <rect x="380" y="60" width="40" height="40" fill="#ff0000" rx="6" />
  </g>
  <g class="furniture" filter="url(#shadow)">
    <rect x="80" y="130" width="40" height="40" fill="#000000" rx="6" />
  </g>
  <g class="furniture" filter="url(#shadow)">
    <rect x="80" y="230" width="40" height="40" fill="#aaaaaa" rx="6" />
  </g>
  <g class="furniture" filter="url(#shadow)">
    <rect x="80" y="330" width="40" height="40" fill="#000000" rx="6" />
  </g>
  <g class="furniture" filter="url(#shadow)">
    <rect x="80" y="430" width="40" height="40" fill="#aaaaaa" rx="6" />
  </g>
  <g class="furniture" filter="url(#shadow)">
    <rect x="80" y="530" width="40" height="40" fill="#000000" rx="6" />
  </g>
  <g class="furniture" filter="url(#shadow)">
    <rect x="180" y="130" width="40" height="40" fill="#aaaaaa" rx="6" />
  </g>
  <g class="furniture" filter="url(#shadow)">
    <rect x="180" y="230" width="40" height="40" fill="#000000" rx="6" />
  </g>
  <g class="furniture" filter="url(#shadow)">
    <rect x="180" y="330" width="40" height="40" fill="#aaaaaa" rx="6" />
  </g>
  <g class="furniture" filter="url(#shadow)">
    <rect x="180" y="430" width="40" height="40" fill="#000000" rx="6" />
  </g>
  <g class="furniture" filter="url(#shadow)">
    <rect x="180" y="530" width="40" height="40" fill="#aaaaaa" rx="6" />
  </g>
  <g class="furniture" filter="url(#shadow)">
    <rect x="280" y="130" width="40" height="40" fill="#000000" rx="6" />
  </g>
  <g class="furniture" filter="url(#shadow)">
    <rect x="280" y="230" width="40" height="40" fill="#aaaaaa" rx="6" />
  </g>
  <g class="furniture" filter="url(#shadow)">
    <rect x="280" y="330" width="40" height="40" fill="#000000" rx="6" />
  </g>
  <g class="furniture" filter="url(#shadow)">
    <rect x="280" y="430" width="40" height="40" fill="#aaaaaa" rx="6" />
  </g>
  <g class="furniture" filter="url(#shadow)">
    <rect x="280" y="530" width="40" height="40" fill="#000000" rx="6" />
  </g>
  <g class="furniture" filter="url(#shadow)">
    <rect x="380" y="130" width="40" height="40" fill="#aaaaaa" rx="6" />
  </g>
  <g class="furniture" filter="url(#shadow)">
    <rect x="380" y="230" width="40" height="40" fill="#000000" rx="6" />
  </g>
  <g class="furniture" filter="url(#shadow)">
    <rect x="380" y="330" width="40" height="40" fill="#aaaaaa" rx="6" />
  </g>
  <g class="furniture" filter="url(#shadow)">
    <rect x="380" y="430" width="40" height="40" fill="#000000" rx="6" />
  </g>
  <g class="furniture" filter="url(#shadow)">
    <rect x="380" y="530" width="40" height="40" fill="#aaaaaa" rx="6" />
  </g>
  <g class="furniture" filter="url(#shadow)">
    <rect x="480" y="130" width="40" height="40" fill="#000000" rx="6" />
  </g>
  <g class="furniture" filter="url(#shadow)">
    <rect x="480" y="230" width="40" height="40" fill="#aaaaaa" rx="6" />
  </g>
  <g class="furniture" filter="url(#shadow)">
    <rect x="480" y="330" width="40" height="40" fill="#000000" rx="6" />
  </g>
  <g class="furniture" filter="url(#shadow)">
    <rect x="480" y="430" width="40" height="40" fill="#aaaaaa" rx="6" />
  </g>
  <g class="furniture" filter="url(#shadow)">
    <rect x="480" y="530" width="40" height="40" fill="#000000" rx="6" />
  </g>
  <g transform="translate(80, 112)">
    <rect x="-30" y="-8" width="60" height="12" fill="white" fill-opacity="0.9" rx="4" />
    <text font-family="Arial, sans-serif" font-size="9" font-weight="bold" text-anchor="middle" fill="#333">Dot</text>
  </g>
  <g transform="translate(160, 112)">
    <rect x="-30" y="-8" width="60" height="12" fill="white" fill-opacity="0.9" rx="4" />
    <text font-family="Arial, sans-serif" font-size="9" font-weight="bold" text-anchor="middle" fill="#333">Dot</text>
  </g>
  <g transform="translate(240, 112)">
    <rect x="-30" y="-8" width="60" height="12" fill="white" fill-opacity="0.9" rx="4" />
    <text font-family="Arial, sans-serif" font-size="9" font-weight="bold" text-anchor="middle" fill="#333">Dot</text>
  </g>
  <g transform="translate(320, 112)">
    <rect x="-30" y="-8" width="60" height="12" fill="white" fill-opacity="0.9" rx="4" />
    <text font-family="Arial, sans-serif" font-size="9" font-weight="bold" text-anchor="middle" fill="#333">Dot</text>
  </g>
  <g transform="translate(400, 112)">
    <rect x="-30" y="-8" width="60" height="12" fill="white" fill-opacity="0.9" rx="4" />
    <text font-family="Arial, sans-serif" font-size="9" font-weight="bold" text-anchor="middle" fill="#333">Dot</text>
  </g>
  <g transform="translate(100, 182)">
    <rect x="-30" y="-8" width="60" height="12" fill="white" fill-opacity="0.9" rx="4" />
    <text font-family="Arial, sans-serif" font-size="9" font-weight="bold" text-anchor="middle" fill="#333">Node</text>
  </g>
  <g transform="translate(100, 282)">
    <rect x="-30" y="-8" width="60" height="12" fill="white" fill-opacity="0.9" rx="4" />
    <text font-family="Arial, sans-serif" font-size="9" font-weight="bold" text-anchor="middle" fill="#333">Node</text>
  </g>
  <g transform="translate(100, 382)">
    <rect x="-30" y="-8" width="60" height="12" fill="white" fill-opacity="0.9" rx="4" />
    <text font-family="Arial, sans-serif" font-size="9" font-weight="bold" text-anchor="middle" fill="#333">Node</text>
  </g>
  <g transform="translate(100, 482)">
    <rect x="-30" y="-8" width="60" height="12" fill="white" fill-opacity="0.9" rx="4" />
    <text font-family="Arial, sans-serif" font-size="9" font-weight="bold" text-anchor="middle" fill="#333">Node</text>
  </g>
  <g transform="translate(100, 582)">
    <rect x="-30" y="-8" width="60" height="12" fill="white" fill-opacity="0.9" rx="4" />
    <text font-family="Arial, sans-serif" font-size="9" font-weight="bold" text-anchor="middle" fill="#333">Node</text>
  </g>
  <g transform="translate(200, 182)">
    <rect x="-30" y="-8" width="60" height="12" fill="white" fill-opacity="0.9" rx="4" />
    <text font-family="Arial, sans-serif" font-size="9" font-weight="bold" text-anchor="middle" fill="#333">Node</text>
  </g>
  <g transform="translate(200, 282)">
    <rect x="-30" y="-8" width="60" height="12" fill="white" fill-opacity="0.9" rx="4" />
    <text font-family="Arial, sans-serif" font-size="9" font-weight="bold" text-anchor="middle" fill="#333">Node</text>
  </g>
  <g transform="translate(200, 382)">
    <rect x="-30" y="-8" width="60" height="12" fill="white" fill-opacity="0.9" rx="4" />
    <text font-family="Arial, sans-serif" font-size="9" font-weight="bold" text-anchor="middle" fill="#333">Node</text>
  </g>
  <g transform="translate(200, 482)">
    <rect x="-30" y="-8" width="60" height="12" fill="white" fill-opacity="0.9" rx="4" />
    <text font-family="Arial, sans-serif" font-size="9" font-weight="bold" text-anchor="middle" fill="#333">Node</text>
  </g>
  <g transform="translate(200, 582)">
    <rect x="-30" y="-8" width="60" height="12" fill="white" fill-opacity="0.9" rx="4" />
    <text font-family="Arial, sans-serif" font-size="9" font-weight="bold" text-anchor="middle" fill="#333">Node</text>
  </g>
  <g transform="translate(300, 182)">
    <rect x="-30" y="-8" width="60" height="12" fill="white" fill-opacity="0.9" rx="4" />
    <text font-family="Arial, sans-serif" font-size="9" font-weight="bold" text-anchor="middle" fill="#333">Node</text>
  </g>
  <g transform="translate(300, 282)">
    <rect x="-30" y="-8" width="60" height="12" fill="white" fill-opacity="0.9" rx="4" />
    <text font-family="Arial, sans-serif" font-size="9" font-weight="bold" text-anchor="middle" fill="#333">Node</text>
  </g>
  <g transform="translate(300, 382)">
    <rect x="-30" y="-8" width="60" height="12" fill="white" fill-opacity="0.9" rx="4" />
    <text font-family="Arial, sans-serif" font-size="9" font-weight="bold" text-anchor="middle" fill="#333">Node</text>
  </g>
  <g transform="translate(300, 482)">
    <rect x="-30" y="-8" width="60" height="12" fill="white" fill-opacity="0.9" rx="4" />
    <text font-family="Arial, sans-serif" font-size="9" font-weight="bold" text-anchor="middle" fill="#333">Node</text>
  </g>
  <g transform="translate(300, 582)">
    <rect x="-30" y="-8" width="60" height="12" fill="white" fill-opacity="0.9" rx="4" />
    <text font-family="Arial, sans-serif" font-size="9" font-weight="bold" text-anchor="middle" fill="#333">Node</text>
  </g>
  <g transform="translate(400, 182)">
    <rect x="-30" y="-8" width="60" height="12" fill="white" fill-opacity="0.9" rx="4" />
    <text font-family="Arial, sans-serif" font-size="9" font-weight="bold" text-anchor="middle" fill="#333">Node</text>
  </g>
  <g transform="translate(400, 282)">
    <rect x="-30" y="-8" width="60" height="12" fill="white" fill-opacity="0.9" rx="4" />
    <text font-family="Arial, sans-serif" font-size="9" font-weight="bold" text-anchor="middle" fill="#333">Node</text>
  </g>
  <g transform="translate(400, 382)">
    <rect x="-30" y="-8" width="60" height="12" fill="white" fill-opacity="0.9" rx="4" />
    <text font-family="Arial, sans-serif" font-size="9" font-weight="bold" text-anchor="middle" fill="#333">Node</text>
  </g>
  <g transform="translate(400, 482)">
    <rect x="-30" y="-8" width="60" height="12" fill="white" fill-opacity="0.9" rx="4" />
    <text font-family="Arial, sans-serif" font-size="9" font-weight="bold" text-anchor="middle" fill="#333">Node</text>
  </g>
  <g transform="translate(400, 582)">
    <rect x="-30" y="-8" width="60" height="12" fill="white" fill-opacity="0.9" rx="4" />
    <text font-family="Arial, sans-serif" font-size="9" font-weight="bold" text-anchor="middle" fill="#333">Node</text>
  </g>
  <g transform="translate(500, 182)">
    <rect x="-30" y="-8" width="60" height="12" fill="white" fill-opacity="0.9" rx="4" />
    <text font-family="Arial, sans-serif" font-size="9" font-weight="bold" text-anchor="middle" fill="#333">Node</text>
  </g>
  <g transform="translate(500, 282)">
    <rect x="-30" y="-8" width="60" height="12" fill="white" fill-opacity="0.9" rx="4" />
    <text font-family="Arial, sans-serif" font-size="9" font-weight="bold" text-anchor="middle" fill="#333">Node</text>
  </g>
  <g transform="translate(500, 382)">
    <rect x="-30" y="-8" width="60" height="12" fill="white" fill-opacity="0.9" rx="4" />
    <text font-family="Arial, sans-serif" font-size="9" font-weight="bold" text-anchor="middle" fill="#333">Node</text>
  </g>
  <g transform="translate(500, 482)">
    <rect x="-30" y="-8" width="60" height="12" fill="white" fill-opacity="0.9" rx="4" />
    <text font-family="Arial, sans-serif" font-size="9" font-weight="bold" text-anchor="middle" fill="#333">Node</text>
  </g>
  <g transform="translate(500, 582)">
    <rect x="-30" y="-8" width="60" height="12" fill="white" fill-opacity="0.9" rx="4" />
    <text font-family="Arial, sans-serif" font-size="9" font-weight="bold" text-anchor="middle" fill="#333">Node</text>
  </g>
</svg>
