<svg id="Pattern_1" width="600" height="600" viewBox="0 0 600 600" xmlns="http://www.w3.org/2000/svg">
  
  <text x="10" y="20" font-family="Arial" font-size="12" fill="#999">Designer: Artist | Date: 2026-03-18</text>
  <rect width="100%" height="100%" fill="#fcfcfc" />
  <rect x="65" y="65" width="30" height="30" fill="#ff0000" rx="4" />
  <text x="80" y="85" font-family="Arial" font-size="8" text-anchor="middle" fill="white">Dot</text>
  <rect x="145" y="65" width="30" height="30" fill="#ff0000" rx="4" />
  <text x="160" y="85" font-family="Arial" font-size="8" text-anchor="middle" fill="white">Dot</text>
  <rect x="225" y="65" width="30" height="30" fill="#ff0000" rx="4" />
  <text x="240" y="85" font-family="Arial" font-size="8" text-anchor="middle" fill="white">Dot</text>
  <rect x="305" y="65" width="30" height="30" fill="#ff0000" rx="4" />
  <text x="320" y="85" font-family="Arial" font-size="8" text-anchor="middle" fill="white">Dot</text>
  <rect x="385" y="65" width="30" height="30" fill="#ff0000" rx="4" />
  <text x="400" y="85" font-family="Arial" font-size="8" text-anchor="middle" fill="white">Dot</text>
  <rect x="85" y="135" width="30" height="30" fill="#000000" rx="4" />
  <text x="100" y="155" font-family="Arial" font-size="8" text-anchor="middle" fill="white">Node</text>
  <rect x="85" y="235" width="30" height="30" fill="#aaaaaa" rx="4" />
  <text x="100" y="255" font-family="Arial" font-size="8" text-anchor="middle" fill="white">Node</text>
  <rect x="85" y="335" width="30" height="30" fill="#000000" rx="4" />
  <text x="100" y="355" font-family="Arial" font-size="8" text-anchor="middle" fill="white">Node</text>
  <rect x="85" y="435" width="30" height="30" fill="#aaaaaa" rx="4" />
  <text x="100" y="455" font-family="Arial" font-size="8" text-anchor="middle" fill="white">Node</text>
  <rect x="85" y="535" width="30" height="30" fill="#000000" rx="4" />
  <text x="100" y="555" font-family="Arial" font-size="8" text-anchor="middle" fill="white">Node</text>
  <rect x="185" y="135" width="30" height="30" fill="#aaaaaa" rx="4" />
  <text x="200" y="155" font-family="Arial" font-size="8" text-anchor="middle" fill="white">Node</text>
  <rect x="185" y="235" width="30" height="30" fill="#000000" rx="4" />
  <text x="200" y="255" font-family="Arial" font-size="8" text-anchor="middle" fill="white">Node</text>
  <rect x="185" y="335" width="30" height="30" fill="#aaaaaa" rx="4" />
  <text x="200" y="355" font-family="Arial" font-size="8" text-anchor="middle" fill="white">Node</text>
  <rect x="185" y="435" width="30" height="30" fill="#000000" rx="4" />
  <text x="200" y="455" font-family="Arial" font-size="8" text-anchor="middle" fill="white">Node</text>
  <rect x="185" y="535" width="30" height="30" fill="#aaaaaa" rx="4" />
  <text x="200" y="555" font-family="Arial" font-size="8" text-anchor="middle" fill="white">Node</text>
  <rect x="285" y="135" width="30" height="30" fill="#000000" rx="4" />
  <text x="300" y="155" font-family="Arial" font-size="8" text-anchor="middle" fill="white">Node</text>
  <rect x="285" y="235" width="30" height="30" fill="#aaaaaa" rx="4" />
  <text x="300" y="255" font-family="Arial" font-size="8" text-anchor="middle" fill="white">Node</text>
  <rect x="285" y="335" width="30" height="30" fill="#000000" rx="4" />
  <text x="300" y="355" font-family="Arial" font-size="8" text-anchor="middle" fill="white">Node</text>
  <rect x="285" y="435" width="30" height="30" fill="#aaaaaa" rx="4" />
  <text x="300" y="455" font-family="Arial" font-size="8" text-anchor="middle" fill="white">Node</text>
  <rect x="285" y="535" width="30" height="30" fill="#000000" rx="4" />
  <text x="300" y="555" font-family="Arial" font-size="8" text-anchor="middle" fill="white">Node</text>
  <rect x="385" y="135" width="30" height="30" fill="#aaaaaa" rx="4" />
  <text x="400" y="155" font-family="Arial" font-size="8" text-anchor="middle" fill="white">Node</text>
  <rect x="385" y="235" width="30" height="30" fill="#000000" rx="4" />
  <text x="400" y="255" font-family="Arial" font-size="8" text-anchor="middle" fill="white">Node</text>
  <rect x="385" y="335" width="30" height="30" fill="#aaaaaa" rx="4" />
  <text x="400" y="355" font-family="Arial" font-size="8" text-anchor="middle" fill="white">Node</text>
  <rect x="385" y="435" width="30" height="30" fill="#000000" rx="4" />
  <text x="400" y="455" font-family="Arial" font-size="8" text-anchor="middle" fill="white">Node</text>
  <rect x="385" y="535" width="30" height="30" fill="#aaaaaa" rx="4" />
  <text x="400" y="555" font-family="Arial" font-size="8" text-anchor="middle" fill="white">Node</text>
  <rect x="485" y="135" width="30" height="30" fill="#000000" rx="4" />
  <text x="500" y="155" font-family="Arial" font-size="8" text-anchor="middle" fill="white">Node</text>
  <rect x="485" y="235" width="30" height="30" fill="#aaaaaa" rx="4" />
  <text x="500" y="255" font-family="Arial" font-size="8" text-anchor="middle" fill="white">Node</text>
  <rect x="485" y="335" width="30" height="30" fill="#000000" rx="4" />
  <text x="500" y="355" font-family="Arial" font-size="8" text-anchor="middle" fill="white">Node</text>
  <rect x="485" y="435" width="30" height="30" fill="#aaaaaa" rx="4" />
  <text x="500" y="455" font-family="Arial" font-size="8" text-anchor="middle" fill="white">Node</text>
  <rect x="485" y="535" width="30" height="30" fill="#000000" rx="4" />
  <text x="500" y="555" font-family="Arial" font-size="8" text-anchor="middle" fill="white">Node</text>
</svg>
