<svg id="Commercial Kitchen_1" width="800" height="840" viewBox="0 0 800 840" xmlns="http://www.w3.org/2000/svg">
  <defs>
    <pattern id="grid" width="50" height="50" patternUnits="userSpaceOnUse">
      <path d="M 50 0 L 0 0 0 50" fill="none" stroke="#f0f0f0" stroke-width="1"/>
      <circle cx="0" cy="0" r="1.5" fill="#e0e0e0" />
    </pattern>
    <filter id="shadow" x="-20%" y="-20%" width="140%" height="140%">
      <feGaussianBlur in="SourceAlpha" stdDeviation="3" />
      <feOffset dx="2" dy="2" result="offsetblur" />
      <feComponentTransfer><feFuncA type="linear" slope="0.2"/></feComponentTransfer>
      <feMerge><feMergeNode /><feMergeNode in="SourceGraphic" /></feMerge>
    </filter>
  </defs>
  <rect width="100%" height="100%" fill="white" />
  <rect width="100%" height="800" fill="url(#grid)" />
  <rect x="0" y="800" width="100%" height="40" fill="#f9f9f9" />
  <line x1="0" y1="800" x2="800" y2="800" stroke="#eee" stroke-width="1" />
  <text x="15" y="825" font-family="Arial, sans-serif" font-size="10" font-weight="bold" fill="#888">
    DESIGNER: Executive Chef | DATE: 2026-03-18 | Commercial Kitchen_1
  </text>
  <line x1="30" y1="30" x2="770" y2="30" stroke="#e74c3c" stroke-width="15" stroke-linecap="round" />
  <line x1="30" y1="30" x2="770" y2="30" stroke="white" stroke-width="6" stroke-linecap="round" opacity="0.3" />
  <line x1="770" y1="30" x2="770" y2="770" stroke="#e74c3c" stroke-width="15" stroke-linecap="round" />
  <line x1="770" y1="30" x2="770" y2="770" stroke="white" stroke-width="6" stroke-linecap="round" opacity="0.3" />
  <line x1="30" y1="770" x2="770" y2="770" stroke="#e74c3c" stroke-width="15" stroke-linecap="round" />
  <line x1="30" y1="770" x2="770" y2="770" stroke="white" stroke-width="6" stroke-linecap="round" opacity="0.3" />
  <line x1="30" y1="30" x2="30" y2="770" stroke="#e74c3c" stroke-width="15" stroke-linecap="round" />
  <line x1="30" y1="30" x2="30" y2="770" stroke="white" stroke-width="6" stroke-linecap="round" opacity="0.3" />
  <line x1="100" y1="70" x2="700" y2="70" stroke="#95a5a6" stroke-width="45" stroke-linecap="round" />
  <line x1="100" y1="70" x2="700" y2="70" stroke="white" stroke-width="18" stroke-linecap="round" opacity="0.3" />
  <line x1="70" y1="100" x2="70" y2="700" stroke="#95a5a6" stroke-width="45" stroke-linecap="round" />
  <line x1="70" y1="100" x2="70" y2="700" stroke="white" stroke-width="18" stroke-linecap="round" opacity="0.3" />
  <line x1="100" y1="730" x2="700" y2="730" stroke="#95a5a6" stroke-width="45" stroke-linecap="round" />
  <line x1="100" y1="730" x2="700" y2="730" stroke="white" stroke-width="18" stroke-linecap="round" opacity="0.3" />
  <g class="furniture" filter="url(#shadow)">
    <rect x="180" y="55" width="40" height="40" fill="#c0392b" rx="6" />
  </g>
  <g class="furniture" filter="url(#shadow)">
    <rect x="330" y="55" width="40" height="40" fill="#c0392b" rx="6" />
  </g>
  <g class="furniture" filter="url(#shadow)">
    <rect x="480" y="55" width="40" height="40" fill="#c0392b" rx="6" />
  </g>
  <g class="furniture" filter="url(#shadow)">
    <rect x="630" y="55" width="40" height="40" fill="#c0392b" rx="6" />
  </g>
  <g class="furniture" filter="url(#shadow)">
    <rect x="180" y="705" width="40" height="40" fill="#ecf0f1" rx="6" />
  </g>
  <g class="furniture" filter="url(#shadow)">
    <rect x="330" y="705" width="40" height="40" fill="#ecf0f1" rx="6" />
  </g>
  <g class="furniture" filter="url(#shadow)">
    <rect x="480" y="705" width="40" height="40" fill="#ecf0f1" rx="6" />
  </g>
  <g class="furniture" filter="url(#shadow)">
    <rect x="630" y="705" width="40" height="40" fill="#ecf0f1" rx="6" />
  </g>
  <line x1="300" y1="400" x2="500" y2="400" stroke="#7e5233" stroke-width="80" stroke-linecap="round" />
  <line x1="300" y1="400" x2="500" y2="400" stroke="white" stroke-width="32" stroke-linecap="round" opacity="0.3" />
  <g class="furniture" filter="url(#shadow)">
    <rect x="330" y="380" width="40" height="40" fill="#3498db" rx="4" />
    <circle cx="350" cy="400" r="14" fill="white" opacity="0.2" />
  </g>
  <g class="furniture" filter="url(#shadow)">
    <rect x="430" y="380" width="40" height="40" fill="#3498db" rx="4" />
    <circle cx="450" cy="400" r="14" fill="white" opacity="0.2" />
  </g>
  <g class="furniture" filter="url(#shadow)">
    <rect x="95" y="370" width="60" height="60" fill="#95a5a6" rx="2" />
  </g>
  <g transform="translate(200, 107)">
    <rect x="-30" y="-8" width="60" height="12" fill="white" fill-opacity="0.9" rx="4" />
    <text font-family="Arial, sans-serif" font-size="9" font-weight="bold" text-anchor="middle" fill="#333">Range</text>
  </g>
  <g transform="translate(350, 107)">
    <rect x="-30" y="-8" width="60" height="12" fill="white" fill-opacity="0.9" rx="4" />
    <text font-family="Arial, sans-serif" font-size="9" font-weight="bold" text-anchor="middle" fill="#333">Range</text>
  </g>
  <g transform="translate(500, 107)">
    <rect x="-30" y="-8" width="60" height="12" fill="white" fill-opacity="0.9" rx="4" />
    <text font-family="Arial, sans-serif" font-size="9" font-weight="bold" text-anchor="middle" fill="#333">Range</text>
  </g>
  <g transform="translate(650, 107)">
    <rect x="-30" y="-8" width="60" height="12" fill="white" fill-opacity="0.9" rx="4" />
    <text font-family="Arial, sans-serif" font-size="9" font-weight="bold" text-anchor="middle" fill="#333">Range</text>
  </g>
  <g transform="translate(200, 757)">
    <rect x="-30" y="-8" width="60" height="12" fill="white" fill-opacity="0.9" rx="4" />
    <text font-family="Arial, sans-serif" font-size="9" font-weight="bold" text-anchor="middle" fill="#333">Fridge</text>
  </g>
  <g transform="translate(350, 757)">
    <rect x="-30" y="-8" width="60" height="12" fill="white" fill-opacity="0.9" rx="4" />
    <text font-family="Arial, sans-serif" font-size="9" font-weight="bold" text-anchor="middle" fill="#333">Fridge</text>
  </g>
  <g transform="translate(500, 757)">
    <rect x="-30" y="-8" width="60" height="12" fill="white" fill-opacity="0.9" rx="4" />
    <text font-family="Arial, sans-serif" font-size="9" font-weight="bold" text-anchor="middle" fill="#333">Fridge</text>
  </g>
  <g transform="translate(650, 757)">
    <rect x="-30" y="-8" width="60" height="12" fill="white" fill-opacity="0.9" rx="4" />
    <text font-family="Arial, sans-serif" font-size="9" font-weight="bold" text-anchor="middle" fill="#333">Fridge</text>
  </g>
  <g transform="translate(350, 432)">
    <rect x="-30" y="-8" width="60" height="12" fill="white" fill-opacity="0.9" rx="4" />
    <text font-family="Arial, sans-serif" font-size="9" font-weight="bold" text-anchor="middle" fill="#333">Sink</text>
  </g>
  <g transform="translate(450, 432)">
    <rect x="-30" y="-8" width="60" height="12" fill="white" fill-opacity="0.9" rx="4" />
    <text font-family="Arial, sans-serif" font-size="9" font-weight="bold" text-anchor="middle" fill="#333">Sink</text>
  </g>
  <g transform="translate(125, 442)">
    <rect x="-30" y="-8" width="60" height="12" fill="white" fill-opacity="0.9" rx="4" />
    <text font-family="Arial, sans-serif" font-size="9" font-weight="bold" text-anchor="middle" fill="#333">Table</text>
  </g>
</svg>
