<svg id="Great Library_1" width="1200" height="1000" viewBox="0 0 1200 1000" xmlns="http://www.w3.org/2000/svg">
  
  <text x="10" y="20" font-family="Arial" font-size="12" fill="#999">Designer: The Architect | Date: 2026-03-18</text>
  <rect width="100%" height="100%" fill="#fcfcfc" />
  <line x1="50" y1="50" x2="50" y2="950" stroke="black" stroke-width="20" stroke-linecap="round" />
  <line x1="50" y1="50" x2="1150" y2="50" stroke="black" stroke-width="20" stroke-linecap="round" />
  <line x1="1150" y1="50" x2="1150" y2="950" stroke="black" stroke-width="20" stroke-linecap="round" />
  <line x1="150" y1="200" x2="700" y2="200" stroke="#7e5233" stroke-width="30" stroke-linecap="round" />
  <line x1="150" y1="450" x2="700" y2="450" stroke="#7e5233" stroke-width="30" stroke-linecap="round" />
  <line x1="150" y1="700" x2="700" y2="700" stroke="#7e5233" stroke-width="30" stroke-linecap="round" />
  <rect x="885" y="185" width="30" height="30" fill="#27ae60" rx="4" />
  <text x="900" y="205" font-family="Arial" font-size="8" text-anchor="middle" fill="white">Table</text>
  <rect x="885" y="225" width="30" height="30" fill="#333333" rx="4" />
  <text x="900" y="245" font-family="Arial" font-size="8" text-anchor="middle" fill="white">Chair</text>
  <rect x="885" y="435" width="30" height="30" fill="#27ae60" rx="4" />
  <text x="900" y="455" font-family="Arial" font-size="8" text-anchor="middle" fill="white">Table</text>
  <rect x="885" y="475" width="30" height="30" fill="#333333" rx="4" />
  <text x="900" y="495" font-family="Arial" font-size="8" text-anchor="middle" fill="white">Chair</text>
  <rect x="885" y="685" width="30" height="30" fill="#27ae60" rx="4" />
  <text x="900" y="705" font-family="Arial" font-size="8" text-anchor="middle" fill="white">Table</text>
  <rect x="885" y="725" width="30" height="30" fill="#333333" rx="4" />
  <text x="900" y="745" font-family="Arial" font-size="8" text-anchor="middle" fill="white">Chair</text>
  <rect x="1035" y="185" width="30" height="30" fill="#27ae60" rx="4" />
  <text x="1050" y="205" font-family="Arial" font-size="8" text-anchor="middle" fill="white">Table</text>
  <rect x="1035" y="225" width="30" height="30" fill="#333333" rx="4" />
  <text x="1050" y="245" font-family="Arial" font-size="8" text-anchor="middle" fill="white">Chair</text>
  <rect x="1035" y="435" width="30" height="30" fill="#27ae60" rx="4" />
  <text x="1050" y="455" font-family="Arial" font-size="8" text-anchor="middle" fill="white">Table</text>
  <rect x="1035" y="475" width="30" height="30" fill="#333333" rx="4" />
  <text x="1050" y="495" font-family="Arial" font-size="8" text-anchor="middle" fill="white">Chair</text>
  <rect x="1035" y="685" width="30" height="30" fill="#27ae60" rx="4" />
  <text x="1050" y="705" font-family="Arial" font-size="8" text-anchor="middle" fill="white">Table</text>
  <rect x="1035" y="725" width="30" height="30" fill="#333333" rx="4" />
  <text x="1050" y="745" font-family="Arial" font-size="8" text-anchor="middle" fill="white">Chair</text>
  <rect x="385" y="785" width="30" height="30" fill="#e67e22" rx="4" />
  <text x="400" y="805" font-family="Arial" font-size="8" text-anchor="middle" fill="white">CircularDesk</text>
</svg>
