<svg id="Corporate Office_1" width="1000" height="840" viewBox="0 0 1000 840" xmlns="http://www.w3.org/2000/svg">
  <defs>
    <pattern id="grid" width="50" height="50" patternUnits="userSpaceOnUse">
      <path d="M 50 0 L 0 0 0 50" fill="none" stroke="#f0f0f0" stroke-width="1"/>
      <circle cx="0" cy="0" r="1.5" fill="#e0e0e0" />
    </pattern>
    <filter id="shadow" x="-20%" y="-20%" width="140%" height="140%">
      <feGaussianBlur in="SourceAlpha" stdDeviation="3" />
      <feOffset dx="2" dy="2" result="offsetblur" />
      <feComponentTransfer><feFuncA type="linear" slope="0.2"/></feComponentTransfer>
      <feMerge><feMergeNode /><feMergeNode in="SourceGraphic" /></feMerge>
    </filter>
  </defs>
  <rect width="100%" height="100%" fill="white" />
  <rect width="100%" height="800" fill="url(#grid)" />
  <rect x="0" y="800" width="100%" height="40" fill="#f9f9f9" />
  <line x1="0" y1="800" x2="1000" y2="800" stroke="#eee" stroke-width="1" />
  <text x="15" y="825" font-family="Arial, sans-serif" font-size="10" font-weight="bold" fill="#888">
    DESIGNER: Facilities Manager | DATE: 2026-03-18 | Corporate Office_1
  </text>
  <line x1="30" y1="30" x2="970" y2="30" stroke="#2c3e50" stroke-width="15" stroke-linecap="round" />
  <line x1="30" y1="30" x2="970" y2="30" stroke="white" stroke-width="6" stroke-linecap="round" opacity="0.3" />
  <line x1="970" y1="30" x2="970" y2="770" stroke="#2c3e50" stroke-width="15" stroke-linecap="round" />
  <line x1="970" y1="30" x2="970" y2="770" stroke="white" stroke-width="6" stroke-linecap="round" opacity="0.3" />
  <line x1="30" y1="770" x2="400" y2="770" stroke="#2c3e50" stroke-width="15" stroke-linecap="round" />
  <line x1="30" y1="770" x2="400" y2="770" stroke="white" stroke-width="6" stroke-linecap="round" opacity="0.3" />
  <line x1="600" y1="770" x2="970" y2="770" stroke="#2c3e50" stroke-width="15" stroke-linecap="round" />
  <line x1="600" y1="770" x2="970" y2="770" stroke="white" stroke-width="6" stroke-linecap="round" opacity="0.3" />
  <line x1="30" y1="30" x2="30" y2="770" stroke="#2c3e50" stroke-width="15" stroke-linecap="round" />
  <line x1="30" y1="30" x2="30" y2="770" stroke="white" stroke-width="6" stroke-linecap="round" opacity="0.3" />
  <line x1="400" y1="770" x2="600" y2="770" stroke="#3498db" stroke-width="5" stroke-linecap="round" />
  <line x1="400" y1="770" x2="600" y2="770" stroke="white" stroke-width="2" stroke-linecap="round" opacity="0.3" />
  <g class="furniture" filter="url(#shadow)">
    <rect x="220" y="120" width="60" height="60" fill="#7f8c8d" rx="2" />
  </g>
  <g class="furniture" filter="url(#shadow)">
    <circle cx="250" cy="205" r="20" fill="#2c3e50" />
  </g>
  <g class="furniture" filter="url(#shadow)">
    <rect x="220" y="270" width="60" height="60" fill="#7f8c8d" rx="2" />
  </g>
  <g class="furniture" filter="url(#shadow)">
    <circle cx="250" cy="355" r="20" fill="#2c3e50" />
  </g>
  <g class="furniture" filter="url(#shadow)">
    <rect x="470" y="120" width="60" height="60" fill="#7f8c8d" rx="2" />
  </g>
  <g class="furniture" filter="url(#shadow)">
    <circle cx="500" cy="205" r="20" fill="#2c3e50" />
  </g>
  <g class="furniture" filter="url(#shadow)">
    <rect x="470" y="270" width="60" height="60" fill="#7f8c8d" rx="2" />
  </g>
  <g class="furniture" filter="url(#shadow)">
    <circle cx="500" cy="355" r="20" fill="#2c3e50" />
  </g>
  <g class="furniture" filter="url(#shadow)">
    <rect x="720" y="120" width="60" height="60" fill="#7f8c8d" rx="2" />
  </g>
  <g class="furniture" filter="url(#shadow)">
    <circle cx="750" cy="205" r="20" fill="#2c3e50" />
  </g>
  <g class="furniture" filter="url(#shadow)">
    <rect x="720" y="270" width="60" height="60" fill="#7f8c8d" rx="2" />
  </g>
  <g class="furniture" filter="url(#shadow)">
    <circle cx="750" cy="355" r="20" fill="#2c3e50" />
  </g>
  <g class="furniture" filter="url(#shadow)">
    <rect x="440" y="440" width="120" height="120" fill="#f1c40f" rx="2" />
  </g>
  <g class="furniture" filter="url(#shadow)">
    <circle cx="400" cy="440" r="20" fill="#333333" />
  </g>
  <g class="furniture" filter="url(#shadow)">
    <circle cx="400" cy="560" r="20" fill="#333333" />
  </g>
  <g class="furniture" filter="url(#shadow)">
    <circle cx="465" cy="440" r="20" fill="#333333" />
  </g>
  <g class="furniture" filter="url(#shadow)">
    <circle cx="465" cy="560" r="20" fill="#333333" />
  </g>
  <g class="furniture" filter="url(#shadow)">
    <circle cx="530" cy="440" r="20" fill="#333333" />
  </g>
  <g class="furniture" filter="url(#shadow)">
    <circle cx="530" cy="560" r="20" fill="#333333" />
  </g>
  <g class="furniture" filter="url(#shadow)">
    <circle cx="595" cy="440" r="20" fill="#333333" />
  </g>
  <g class="furniture" filter="url(#shadow)">
    <circle cx="595" cy="560" r="20" fill="#333333" />
  </g>
  <g class="furniture" filter="url(#shadow)">
    <rect x="810" y="610" width="80" height="80" fill="#7e5233" rx="2" />
  </g>
  <g class="furniture" filter="url(#shadow)">
    <circle cx="850" cy="600" r="20" fill="#2c3e50" />
  </g>
  <g class="furniture" filter="url(#shadow)">
    <rect x="700" y="630" width="100" height="100" fill="#2980b9" rx="6" />
  </g>
  <line x1="80" y1="100" x2="80" y2="700" stroke="#7f8c8d" stroke-width="40" stroke-linecap="round" />
  <line x1="80" y1="100" x2="80" y2="700" stroke="white" stroke-width="16" stroke-linecap="round" opacity="0.3" />
  <g class="furniture" filter="url(#shadow)">
    <rect x="60" y="380" width="40" height="40" fill="#3498db" rx="4" />
    <circle cx="80" cy="400" r="14" fill="white" opacity="0.2" />
  </g>
  <g transform="translate(250, 192)">
    <rect x="-30" y="-8" width="60" height="12" fill="white" fill-opacity="0.9" rx="4" />
    <text font-family="Arial, sans-serif" font-size="9" font-weight="bold" text-anchor="middle" fill="#333">Desk</text>
  </g>
  <g transform="translate(250, 237)">
    <rect x="-30" y="-8" width="60" height="12" fill="white" fill-opacity="0.9" rx="4" />
    <text font-family="Arial, sans-serif" font-size="9" font-weight="bold" text-anchor="middle" fill="#333">Chair</text>
  </g>
  <g transform="translate(250, 342)">
    <rect x="-30" y="-8" width="60" height="12" fill="white" fill-opacity="0.9" rx="4" />
    <text font-family="Arial, sans-serif" font-size="9" font-weight="bold" text-anchor="middle" fill="#333">Desk</text>
  </g>
  <g transform="translate(250, 387)">
    <rect x="-30" y="-8" width="60" height="12" fill="white" fill-opacity="0.9" rx="4" />
    <text font-family="Arial, sans-serif" font-size="9" font-weight="bold" text-anchor="middle" fill="#333">Chair</text>
  </g>
  <g transform="translate(500, 192)">
    <rect x="-30" y="-8" width="60" height="12" fill="white" fill-opacity="0.9" rx="4" />
    <text font-family="Arial, sans-serif" font-size="9" font-weight="bold" text-anchor="middle" fill="#333">Desk</text>
  </g>
  <g transform="translate(500, 237)">
    <rect x="-30" y="-8" width="60" height="12" fill="white" fill-opacity="0.9" rx="4" />
    <text font-family="Arial, sans-serif" font-size="9" font-weight="bold" text-anchor="middle" fill="#333">Chair</text>
  </g>
  <g transform="translate(500, 342)">
    <rect x="-30" y="-8" width="60" height="12" fill="white" fill-opacity="0.9" rx="4" />
    <text font-family="Arial, sans-serif" font-size="9" font-weight="bold" text-anchor="middle" fill="#333">Desk</text>
  </g>
  <g transform="translate(500, 387)">
    <rect x="-30" y="-8" width="60" height="12" fill="white" fill-opacity="0.9" rx="4" />
    <text font-family="Arial, sans-serif" font-size="9" font-weight="bold" text-anchor="middle" fill="#333">Chair</text>
  </g>
  <g transform="translate(750, 192)">
    <rect x="-30" y="-8" width="60" height="12" fill="white" fill-opacity="0.9" rx="4" />
    <text font-family="Arial, sans-serif" font-size="9" font-weight="bold" text-anchor="middle" fill="#333">Desk</text>
  </g>
  <g transform="translate(750, 237)">
    <rect x="-30" y="-8" width="60" height="12" fill="white" fill-opacity="0.9" rx="4" />
    <text font-family="Arial, sans-serif" font-size="9" font-weight="bold" text-anchor="middle" fill="#333">Chair</text>
  </g>
  <g transform="translate(750, 342)">
    <rect x="-30" y="-8" width="60" height="12" fill="white" fill-opacity="0.9" rx="4" />
    <text font-family="Arial, sans-serif" font-size="9" font-weight="bold" text-anchor="middle" fill="#333">Desk</text>
  </g>
  <g transform="translate(750, 387)">
    <rect x="-30" y="-8" width="60" height="12" fill="white" fill-opacity="0.9" rx="4" />
    <text font-family="Arial, sans-serif" font-size="9" font-weight="bold" text-anchor="middle" fill="#333">Chair</text>
  </g>
  <g transform="translate(500, 572)">
    <rect x="-30" y="-8" width="60" height="12" fill="white" fill-opacity="0.9" rx="4" />
    <text font-family="Arial, sans-serif" font-size="9" font-weight="bold" text-anchor="middle" fill="#333">Conference</text>
  </g>
  <g transform="translate(400, 472)">
    <rect x="-30" y="-8" width="60" height="12" fill="white" fill-opacity="0.9" rx="4" />
    <text font-family="Arial, sans-serif" font-size="9" font-weight="bold" text-anchor="middle" fill="#333">Chair</text>
  </g>
  <g transform="translate(400, 592)">
    <rect x="-30" y="-8" width="60" height="12" fill="white" fill-opacity="0.9" rx="4" />
    <text font-family="Arial, sans-serif" font-size="9" font-weight="bold" text-anchor="middle" fill="#333">Chair</text>
  </g>
  <g transform="translate(465, 472)">
    <rect x="-30" y="-8" width="60" height="12" fill="white" fill-opacity="0.9" rx="4" />
    <text font-family="Arial, sans-serif" font-size="9" font-weight="bold" text-anchor="middle" fill="#333">Chair</text>
  </g>
  <g transform="translate(465, 592)">
    <rect x="-30" y="-8" width="60" height="12" fill="white" fill-opacity="0.9" rx="4" />
    <text font-family="Arial, sans-serif" font-size="9" font-weight="bold" text-anchor="middle" fill="#333">Chair</text>
  </g>
  <g transform="translate(530, 472)">
    <rect x="-30" y="-8" width="60" height="12" fill="white" fill-opacity="0.9" rx="4" />
    <text font-family="Arial, sans-serif" font-size="9" font-weight="bold" text-anchor="middle" fill="#333">Chair</text>
  </g>
  <g transform="translate(530, 592)">
    <rect x="-30" y="-8" width="60" height="12" fill="white" fill-opacity="0.9" rx="4" />
    <text font-family="Arial, sans-serif" font-size="9" font-weight="bold" text-anchor="middle" fill="#333">Chair</text>
  </g>
  <g transform="translate(595, 472)">
    <rect x="-30" y="-8" width="60" height="12" fill="white" fill-opacity="0.9" rx="4" />
    <text font-family="Arial, sans-serif" font-size="9" font-weight="bold" text-anchor="middle" fill="#333">Chair</text>
  </g>
  <g transform="translate(595, 592)">
    <rect x="-30" y="-8" width="60" height="12" fill="white" fill-opacity="0.9" rx="4" />
    <text font-family="Arial, sans-serif" font-size="9" font-weight="bold" text-anchor="middle" fill="#333">Chair</text>
  </g>
  <g transform="translate(850, 702)">
    <rect x="-30" y="-8" width="60" height="12" fill="white" fill-opacity="0.9" rx="4" />
    <text font-family="Arial, sans-serif" font-size="9" font-weight="bold" text-anchor="middle" fill="#333">Executive</text>
  </g>
  <g transform="translate(850, 632)">
    <rect x="-30" y="-8" width="60" height="12" fill="white" fill-opacity="0.9" rx="4" />
    <text font-family="Arial, sans-serif" font-size="9" font-weight="bold" text-anchor="middle" fill="#333">Chair</text>
  </g>
  <g transform="translate(750, 742)">
    <rect x="-30" y="-8" width="60" height="12" fill="white" fill-opacity="0.9" rx="4" />
    <text font-family="Arial, sans-serif" font-size="9" font-weight="bold" text-anchor="middle" fill="#333">Lounge</text>
  </g>
  <g transform="translate(80, 432)">
    <rect x="-30" y="-8" width="60" height="12" fill="white" fill-opacity="0.9" rx="4" />
    <text font-family="Arial, sans-serif" font-size="9" font-weight="bold" text-anchor="middle" fill="#333">Coffee</text>
  </g>
</svg>
